<?xml version="1.0" encoding="utf-8"?>
<!-- Generator: Adobe Illustrator 22.0.1, SVG Export Plug-In . SVG Version: 6.00 Build 0)  -->
<svg version="1.1" id="Vrstva_1" xmlns="http://www.w3.org/2000/svg" xmlns:xlink="http://www.w3.org/1999/xlink" x="0px" y="0px"
	 viewBox="0 0 976.3 846.8" style="enable-background:new 0 0 976.3 846.8;" xml:space="preserve">
<style type="text/css">
	.st0{fill:none;}
	.st1{fill:#333131;}
	.st2{fill:#5277C3;}
	.st3{fill:#7EBAE4;}
	.st4{fill:#4D4D4D;}
	.st5{fill:url(#SVGID_10_);}
	.st6{fill:url(#SVGID_11_);}
	.st7{fill:url(#SVGID_12_);}
	.st8{fill:url(#SVGID_13_);}
	.st9{fill:url(#SVGID_14_);}
	.st10{fill:url(#SVGID_15_);}
	.st11{fill:url(#SVGID_16_);}
	.st12{fill:url(#SVGID_17_);}
	.st13{fill:url(#SVGID_18_);}
	.st14{fill:#FFFFFF;stroke:#333131;stroke-width:1.1908;}
	.st15{fill:#FFFFFF;}
</style>
<pattern  y="846.8" width="90.1" height="90.8" patternUnits="userSpaceOnUse" id="SVGID_1_" viewBox="0 -90.8 90.1 90.8" style="overflow:visible;">
	<g>
		<rect y="-90.8" class="st0" width="90.1" height="90.8"/>
		<g>
			<rect y="-90.8" class="st0" width="90.1" height="90.8"/>
		</g>
	</g>
</pattern>
<pattern  y="846.8" width="90.1" height="90.8" patternUnits="userSpaceOnUse" id="SVGID_2_" viewBox="0 -90.8 90.1 90.8" style="overflow:visible;">
	<g>
		<rect y="-90.8" class="st0" width="90.1" height="90.8"/>
		<g>
			<rect y="-90.8" class="st0" width="90.1" height="90.8"/>
		</g>
	</g>
</pattern>
<pattern  y="846.8" width="90.1" height="90.8" patternUnits="userSpaceOnUse" id="SVGID_3_" viewBox="0 -90.8 90.1 90.8" style="overflow:visible;">
	<g>
		<rect y="-90.8" class="st0" width="90.1" height="90.8"/>
		<g>
			<rect y="-90.8" class="st0" width="90.1" height="90.8"/>
		</g>
	</g>
</pattern>
<pattern  y="846.8" width="90.1" height="90.8" patternUnits="userSpaceOnUse" id="SVGID_4_" viewBox="0 -90.8 90.1 90.8" style="overflow:visible;">
	<g>
		<rect y="-90.8" class="st0" width="90.1" height="90.8"/>
		<g>
			<rect y="-90.8" class="st0" width="90.1" height="90.8"/>
		</g>
	</g>
</pattern>
<pattern  y="846.8" width="90.1" height="90.8" patternUnits="userSpaceOnUse" id="SVGID_5_" viewBox="0 -90.8 90.1 90.8" style="overflow:visible;">
	<g>
		<rect y="-90.8" class="st0" width="90.1" height="90.8"/>
		<g>
			<rect y="-90.8" class="st0" width="90.1" height="90.8"/>
		</g>
	</g>
</pattern>
<pattern  y="846.8" width="90.1" height="90.8" patternUnits="userSpaceOnUse" id="SVGID_6_" viewBox="0 -90.8 90.1 90.8" style="overflow:visible;">
	<g>
		<rect y="-90.8" class="st0" width="90.1" height="90.8"/>
		<g>
			<rect y="-90.8" class="st0" width="90.1" height="90.8"/>
		</g>
	</g>
</pattern>
<pattern  y="846.8" width="90.1" height="90.8" patternUnits="userSpaceOnUse" id="SVGID_7_" viewBox="0 -90.8 90.1 90.8" style="overflow:visible;">
	<g>
		<rect y="-90.8" class="st0" width="90.1" height="90.8"/>
		<g>
			<rect y="-90.8" class="st0" width="90.1" height="90.8"/>
		</g>
	</g>
</pattern>
<pattern  y="846.8" width="90.1" height="90.8" patternUnits="userSpaceOnUse" id="SVGID_8_" viewBox="0 -90.8 90.1 90.8" style="overflow:visible;">
	<g>
		<rect y="-90.8" class="st0" width="90.1" height="90.8"/>
		<g>
			<rect y="-90.8" class="st0" width="90.1" height="90.8"/>
		</g>
	</g>
</pattern>
<pattern  y="846.8" width="90.1" height="90.8" patternUnits="userSpaceOnUse" id="SVGID_9_" viewBox="0 -90.8 90.1 90.8" style="overflow:visible;">
	<g>
		<rect y="-90.8" class="st0" width="90.1" height="90.8"/>
		<g>
			<rect y="-90.8" class="st0" width="90.1" height="90.8"/>
		</g>
	</g>
</pattern>
<g>
	<path class="st2" d="M592.6,583.5l237.8-411.9l55.5,94.1L821.8,376l127.3,0.3l27.1,47l-27.7,48.1L767.4,471l-65.1,112.3
		L592.6,583.5z"/>
	<path class="st3" d="M401.9,594.4h475.6l-53.8,95.2l-127.6-0.4l63.4,110.4l-27.2,47l-55.5,0.1l-90.1-157.2L457,689.3L401.9,594.4z"
		/>
	<path class="st2" d="M297.9,434.8l237.8,411.9l-109.3,1L362.9,737L299,847.2h-54.3l-27.8-48L308,642.6L243.3,530L297.9,434.8z"/>
	<polygon class="st3" points="383.7,265.2 145.9,677.1 90.4,583 154.5,472.7 27.2,472.4 0,425.3 27.7,377.2 208.9,377.8 274,265.4 	
		"/>
	<path class="st2" d="M574.1,253.3H98.5l53.8-95.2l127.6,0.4L216.4,48.1l27.2-47L299.1,1l90.1,157.2l129.8,0.3L574.1,253.3z"/>
	<polygon class="st3" points="678.8,413.9 441,2 550.3,1 613.8,111.7 677.7,1.6 732,1.6 759.8,49.6 668.7,206.2 733.4,318.7 	"/>
	<g>
		<path class="st4" d="M445.9,461.5c-1.1-14.7-13.3-10.7-21.3-14.3c-10.1,4.8-21.5,9.2-21.1,17.4l-20.8-2.6
			c-24.3-0.1-37-5.5-48-11.7c-25.6,0.6-27.5-8.1-38.9-13c-12.9-14.3,3.1-15.3,6.5-22c5.8-11.7,12.7-21.1,23.4-22l22.4-18.1
			c10.7-3.6,21.7-5.9,34.8,1.3c15.2,7.7,28.2,15.7,33.7,24.7l44.1-10.4l24.7-24.7l31.1-1.3c4.9-23.8,15.6-47.7,33.9-71.5
			c11.3-12.6,21-25,44.1-38.8c1-8.5,6.5-17.1,13.7-25.6c7.2-7.9,17.2-12.9,30.4-14.6l32.5,10.4l15.6-9.1l7.8-15.6
			c-8.5-12.3-20.4-10.8-31.1-14.2l-64.9,2.6l-48,11.7l-48,10.4l-57.1,45.4l-74,6.5l-45.4-14.2L268,234.4
			c-13.2-11.1-15.8-20.2-15.8-31.3l19.4,1.2l6.4-17.4l27,13.3l8.3-18.8c11.7,1.6,23.3,7.6,34.9,16.5l-3.7-26.1
			c6.8,4,5.4,5.7,36.2,16.5l-11.5-28.9l46.4,14.2l-11-28c12,3.3,16.6,3.2,40.8,12l-12.9-25.2l12,0.9l31.6,11.5L458.7,118
			c9.5,0.8,13.8-1.2,29.8,2.8l18.8,17.9c2.2-11.7-4.9-23.3-16.1-34.9l11.5,0.5c10.3,3.6,20.9,6.5,27.5,18.4
			c5.4-10.6,3.2-19.9,1.4-29.3c9.7,1.9,19.5,3.5,28,13.8c3.6-6.5,7.1-13,2.3-26.6c8.1,1.9,17.2,11.4,26.1,22.9
			c3.2-5.8,4.2-13.1,3.7-26.1c10.1-1.8,11.3,11.1,30.3,20.6c3.4-9.2,2.9-18.4,2.8-27.5c12.9,2.6,23.7,14.4,33,26.6l9.2-16.5
			L692.8,96l7.4-16.1c12.9-2.1,15.9,8.5,20.6,17c6.2-0.7,9.3-13.2,15.6-12.9c11.8,2.6,13.2,12.2,14.2,22l19.3-13.8
			c17.9,3.8,12.4,11.7,16.1,22c6-5.2,12.2-12,17-5.5c4.9,9,5.2,17,4.1,24.7l17,1.8c16.7,20.9,17.7,49.4,20.2,60.5
			c2.6,17.5,10.9,36.8,2.3,50.9c7.9,13.3,21.8,13.2,34.4,16.1c8.1,7.2,15.2,14.7,16.1,24.3l-5.5,36.2c10-3.3,22.5,3.1,34.9,6.9
			c12.3,11,12.2,17.2,18.4,27c-21.2-6.3-28.9-8.3-34.4-9.7l4.6,11c2.6,12,3.3,21.8-1.4,25.2c-9.2-0.1-14.4-8.4-20.2-15.6l-5.5,26.6
			c-11.1-10.6-14.7-15.6-16.1-18.8c-0.9,13.1-0.2,27.7-6.9,36.2L835,447.3l35.7,30.5c16.1,25.4,11.4,56.1,8.7,86.3
			c-16.5,50.3-27.1,41.8-40.4,59.6l14.2,14.2l30.3,13.8c8.6,9.7,19.5,19.8,18.8,28.4l-21.1-7.8l-12,2.8
			c12.7,15.1,18.4,30.2,23.8,45.4l-16.1-8.7l-17-2.8l3.2,14.2c3.3,13.8-0.1,22.5-2.8,31.6c-11.3-11.3-24.9-22.6-29.3-33.9
			c-10.2-7-20.5-19-30.7-18.4c-8.9,10-7.4,16.5-9.7,24.3c-7.2,22.6-19.1,31.3-29.8,43.6l-8.7-27c-0.8-15.3,1.7-33.9,3.2-51.4
			c-5.1-2.1-19.5,9.7-33.1,11.9c-10.6,1.7-13.3,5.2-26.1,12c-3.6-17.5,2.4-27.7,8.3-38.1l36.2-31.6c8.1-16.4,8.8-36.5,9.7-56.4
			c7.4-10.3,22.5-24.4,21.1-30.3c-1.2-7.4-5.8-4.4-9.2-5.1c-43,26.8-38.2,16.1-50,18.4c-20.5,19.6-40.7,39.8-68.3,48.7l-52.3-1.4
			c-12-1.6-25.9,11.7-39,18.8c-30.7,10.1-60.3,13.2-88.6,8.7c-30-1.1-35.8,3.8-52.8,6c-25.2,19.3-48.8,5.4-72.9,2.3
			c-17.1-9.3-19.1-20.3-26.1-30.7c1.7-10.6,4.4-19.1,9.7-22.5c10.8-10.4,20.2-20.6,36.7-32.1l53.7-50c-13.2-6.1-24.6,0.2-36.7,1.8
			c3.3-5.8,6.7-11.6,18.4-19.7L362,505c4.7-6.4,14.9-11.6,30.7-15.6l-15.2-4.1c5.3-4.5,9-11.3,20.2-7.8c12.2-0.5,25.3-1.8,35.3,0
			C437.4,472.2,447.5,465.6,445.9,461.5L445.9,461.5z"/>
		<g>
			<pattern  id="SVGID_10_" xlink:href="#SVGID_1_" patternTransform="matrix(-2.8363 0 0 2.8363 -57199.0313 40814.9844)">
			</pattern>
			<path class="st5" d="M592.8,543.1c-3.4,11.6-7.4,20.2-11.7,26.1c-4.4,4.9-10.6,4.8-16,6.7l-6.7,13.9
				c-13.6,13-28.9,18.3-42.1,20.6l-24.5,3.4l-15.2,12.7l-13.1,2.5c-4.6,6-14.5,12.8-13.1,17.7l32.9,4.2l68.7-12.7l40.9-19.4
				l54.4,2.1c22.8-11.2,45.3-25.7,67-49.3c6.5,1.5,15.5,1.2,28.7-8.3c12.4-8.8,26.5-9.7,32.4-7.3c5.8-3.4,7-10,12.4-17.2
				c-10.1-6.7-38.4-11.7-54.1-6.7c-2.9-2.9-9.7-19.9-8.9-25c-2.5,1.1-0.6,11.6-3.3,20.9c-1.7,5.8-7,9.9-10.6,14.9
				c-34.5,18.8-58.2-11.3-87.2-38.8C618.1,523.4,609.5,538.5,592.8,543.1L592.8,543.1z"/>
			<pattern  id="SVGID_11_" xlink:href="#SVGID_2_" patternTransform="matrix(-2.8363 0 0 2.8363 -57199.0313 40814.9844)">
			</pattern>
			<path class="st6" d="M384.1,624c13.8-2.2,18.4-10.1,21.1-19c8.1-2.4,17-3.9,26.1-5.1l15.2-0.8c10.1-8.1,19.5-17.4,38.4-11.4
				l16.9-9.2c9.3-12.3,13.9-25.4,41.3-34.5l25-32.9l9.7-24.5l-4.2-19.8c-16.3,2.2-34.7-0.8-54.4-7.6c-8.2,6-16.8,11.7-37.1,11
				c-1.8,15.8-1,41.2-7.6,48.9c-17.8,7.6-18.8,12-28.6,18.6l-52.7,38c-21.4,16.8-28.4,29.3-34.5,41.7
				C365.2,623.6,373,627.7,384.1,624z"/>
			<pattern  id="SVGID_12_" xlink:href="#SVGID_3_" patternTransform="matrix(-2.8363 0 0 2.8363 -57199.0313 40814.9844)">
			</pattern>
			<path class="st7" d="M451.3,488.1c-7.6,15.2-18.9,24.7-32.8,30.4c-13.8,1.2-22.7-0.6-43.5,4.8c1.8-10.8,13.4-14.2,20.9-20.9
				l-37,3c12.1-12.4,26.3-12.7,39.9-16.1c-6.7-1.1-13.2-2.2-24.5-1.8c6.2-3.5,5-7.2,19.7-10.7l39.3-0.6l17.3-17.3L451.3,488.1z"/>
			<pattern  id="SVGID_13_" xlink:href="#SVGID_4_" patternTransform="matrix(-2.8363 0 0 2.8363 -57199.0313 40814.9844)">
			</pattern>
			<path class="st8" d="M791.7,438.7l41.8,9.1c7.2-5.7,14.8-10.6,20.5-19.3c7.6-7.2,12.3-18.5,16-31.2c-2.7-10.2-1.7-28.1-2.5-42.1
				l-15.4-30.4c0.6,8.2-3.1,16.5-7.1,24.7l-0.9,33.9c-7.9,13.9-17.9,24.8-30.5,33.2c-29.1,18.9-39.8,16.9-59,24.5
				C766.6,440.2,773.4,436.3,791.7,438.7z"/>
			<pattern  id="SVGID_14_" xlink:href="#SVGID_5_" patternTransform="matrix(-2.8363 0 0 2.8363 -57199.0313 40814.9844)">
			</pattern>
			<path class="st9" d="M647.3,186.4c11.3-3.3,24.3-3.3,43.5,7.7c8.1,8.8,1.5,10.3,1.2,14.9c9.2,1,15.4-9.1,21.5-19v-10.1l9.5-25
				c-1.7-9.4-2.5-20.6-11.9-13.1c-17.4,39-66.2,26.4-97.2,41.7L647.3,186.4z"/>
			<pattern  id="SVGID_15_" xlink:href="#SVGID_6_" patternTransform="matrix(-2.8363 0 0 2.8363 -57199.0313 40814.9844)">
			</pattern>
			<path class="st10" d="M531.1,123.1c5.1,9.3,10.3,12.4,15.6,15.5l7.2-19.7c12.9,0.5,24.7,6.6,37,10.7c-1.5-4.6-5.2-9.1-8.1-13.7
				c4.2-2.2,9.6-2.5,17,0l21.5,11.3l-1.2-15.5c3.5-3.6,7.2-2.5,10.7-2.4c9.9,3.8,18.4,10.4,26.8,17.3l5.4-13.7
				c8-0.9,17.4,12.6,26.2,19l7.7-9c7,7.9,9.8,22.6,17.5,16.2c21.9,12.3,18.1-9.9,30.5-12.2c15.6-7.4,21.8-11.7,3.2-17.1
				c-8.3-2.7-12.4-19.6-25-7.2c-5.5-2.6-15.6-12.5-16.4-7.7c-0.5,4.4-7.2,4.9-14,5.4c-8-2.3-19.3-12-24.1-6.9
				c-1.3,5.3-5.4,7.2-9.8,8.6c-7.9-5.3-12.5-14.5-23.6-15.8c-4.6,10.3-7.6,11.1-12.2,15.8c-8.3-3.5-16.7-12.4-25-10.4
				c-0.8,11.1-4.7,11.3-9,17c-6.1-3.2-8.7-9.3-18.5-9.5c-0.6,6.4-5.8,8.1-10.1,10.7c-6.3-1.5-11.8-7.3-19-4.4
				C538.9,115.9,535,119.7,531.1,123.1L531.1,123.1z"/>
			<pattern  id="SVGID_16_" xlink:href="#SVGID_7_" patternTransform="matrix(-2.8363 0 0 2.8363 -57199.0313 40814.9844)">
			</pattern>
			<path class="st11" d="M827.3,205.1c1.5-5.8,1.9-21.3,0.6-27.1l7.2-20.9c4.5,10.8,8,24.9,10.1,42.9c1.6,15.2,9.1,33,3,44.7
				l-21.5,6.9C830.6,233.3,837,213.4,827.3,205.1L827.3,205.1z"/>
			<pattern  id="SVGID_17_" xlink:href="#SVGID_8_" patternTransform="matrix(-2.8363 0 0 2.8363 -57199.0313 40814.9844)">
			</pattern>
			<path class="st12" d="M514.4,362.1c0,0,37.7-7.4,54.8-17.2c14.7-8.5,39.3-32.2,39.3-32.2l-13.7,15.5l1.2,23.2
				c-15.1,0.7-12.7,7.3-14.3,12.5c-16.9-9.4-25.9-3-33.4,6.5C534.7,360.3,520.8,369,514.4,362.1L514.4,362.1z"/>
			<pattern  id="SVGID_18_" xlink:href="#SVGID_9_" patternTransform="matrix(-2.8363 0 0 2.8363 -57199.0313 40814.9844)">
			</pattern>
			<path class="st13" d="M599.6,240.4c0,0,26.5,2.8,40.5-1.2c8.3-2.3,26.2-13.7,26.2-13.7l-6,16.7c-8.1,1.9-20,1.5-20.9,7.7
				c-8.1-2.3-26.6-0.9-44,4.4C597,246.8,596.6,245.6,599.6,240.4L599.6,240.4z"/>
		</g>
		<path image-rendering="auto" color-rendering="auto" shape-rendering="auto" class="st1" d="M823.9,312.2
			c2.8,4.9,4.7,9.1,4.7,13.1c0,2.1-4.2,6.9-8.1,8.5c2.5,5.8,4,10.3,3,14.5c-2.5,10-5.8,9.8-18.6,8.3c4,8.1,1.1,16-0.7,18.6
			c-1.7,2.4-8.8,3.7-12.1,3.7c-1.2,4.1-0.6,7.2-3.9,10.6c-4.9,5.1-11.6,6.4-18.1,7.1c-1.9,2.8-1.1,9.1-5.2,10.6
			c-6.7,2.4-9.9,3.5-25-2.4c5.6-2,11.8-0.4,17.5-2.1c5.1-1.5,5.3-7.7,5.6-12.2c4.4-1.7,12.7-0.8,17-2.8c3.1-1.3,5.1-9.3,7.3-14.9
			c3.4,0.3,10.4,0.6,11.4-3.8c1.1-5.1,0.8-10.6,2.1-15.7c3.8-0.8,11.5-0.9,14.2-3.6c3.8-3.8,1.7-11.8,1.7-18.7
			C826.1,328.5,825.3,319.3,823.9,312.2L823.9,312.2z"/>
		<g transform="matrix(1.0886 0 0 1.0886 -3.5562 -86.592)" shape-rendering="auto">
			<path image-rendering="auto" color-rendering="auto" class="st1" d="M609.5,498.1c-0.6,6.3-4.7,10.1-10.8,13.6
				c-1,5.5-1.3,14.7-4.6,20.9c-3.5,6.9-10.2,10.6-15.2,12c4.5,12.1-1.3,24.1-5.1,35.3c-2,6-4.5,12.8-7.5,18.3
				c-3.3,5.9-8.1,12-14.2,9.9c-2.9,14.9-12.9,26.8-25.9,28.7c5.1-4,11.2-8.9,15.6-16.3c3.1-5.2,6.1-10.1,6.3-17.2
				c9.6,1.1,17.6-12.2,19.5-21.9c1.1-5.4,6.2-14.7,7.5-21.2c1.4-6.8-1-10.9-2-18.6c2-1.7,9.6-4.9,14.5-12.4
				c3.3-5.1,4.4-13.4,4.9-19.5c3.7-4.4,10.3-9.1,10-15.4c-0.6-12.9-12.9-22.7-21.7-30.9C599.2,472.9,610.4,486.7,609.5,498.1z"/>
			<path image-rendering="auto" color-rendering="auto" class="st1" d="M513.4,473.5c6.3-3.1,14.2-0.5,20.2,0.3
				c6.1,0.8,10.9-0.1,16.2,0.6c-5.8,6.7-17.2,2.2-29.2,5c-6,1.5-8.2,3-10.6,4c-5.8,2.2-19.1,1.1-26.1-5.9c2.8,0.6,5.7,1.1,8.5,1.4
				C499.8,479.6,506.8,476.8,513.4,473.5L513.4,473.5z"/>
		</g>
		<path image-rendering="auto" color-rendering="auto" shape-rendering="auto" class="st1" d="M559,392.1c8.1,0.6,16.8,3.3,22,10
			c0.7,1,3.7,2.8,6,1.9c1.9-0.8,6.8-1.5,8.8-0.1c7.2,6.1,11.2,9.7,19,14.8c-9,1.2-13.2-5.8-21.1-9.7c-1.7-0.8-7.4-0.1-13.1,2.6
			c-6,2.8-16.5,11.7-28.5,12.5c-7.2,0.5-13.8-3.5-18.1-9c-6.5,4.2-16.1,7.4-23.6,9c6-7,10.8-6.1,19-15c4.4-4.9,9.5-9.1,15.2-12.3
			C548.9,394.4,553.7,391.7,559,392.1L559,392.1z M557.4,397.8c-6.7,1.1-11.9,7-17.8,12.1c2.9,4.3,8,9.1,13.3,8.3
			c7.9-1.3,18.9-8,26-11.6C574.3,402.4,564.5,396.6,557.4,397.8L557.4,397.8z"/>
		<path image-rendering="auto" color-rendering="auto" shape-rendering="auto" class="st1" d="M321.9,415.2c6.9-12.2,9.4-13.3,19-8
			c-2.4,1.6-8.1,1.7-10.8,4.4c-2.4,2.3-1.8,7.3-3.4,9.2c-4.8,1.6-12.4,17.4-9.5,21.5c-3.1-1.5-6.6-4-6.9-9c0.2-3.7,3.1-5.1,5.1-8.2
			C319.6,419.2,316,419.3,321.9,415.2L321.9,415.2z"/>
		<g transform="matrix(1.0886 0 0 1.0886 -3.5562 -86.592)" shape-rendering="auto">
			<path image-rendering="auto" color-rendering="auto" class="st1" d="M490.5,547.5c-7.6,0.8-11.4,1.3-19.8,4
				c-7.4,2.3-10.4,5.8-14.8,11.5c-5.5,7.2-10.4,15-16.7,21.6c-5.5,5.7-22,17.5-30.9,13.3c4.2-2.2,8.5-4.4,12.5-7
				c11.5-7.3,19.7-18.5,27.4-29.5c5.4-7.7,12.7-15.4,22.5-16.8C477.5,543.5,483.9,546.2,490.5,547.5z"/>
			<path image-rendering="auto" color-rendering="auto" class="st1" d="M468,569.5c5-3.7,9.2-1,19,0.3c-5.2,1.2-10.8,0.6-15.5,3.4
				c-3.6,2.1-8.2,9.7-11.3,12.4c-7.6,6.7-12,9.2-18.9,17.6c1.6-6.3,10.3-14.9,14.5-19.9C459.9,578.4,462.8,573.3,468,569.5
				L468,569.5z"/>
		</g>
		<g transform="matrix(1.0886 0 0 1.0886 -3.5562 -86.592)" shape-rendering="auto">
			<path image-rendering="auto" color-rendering="auto" class="st1" d="M484.9,443.4c6.1-6.5,12-14.2,17.3-16
				c5.4-1.7,7.4-1.9,9.3-1.9c10.8,0.8,20.9,6,30.3,11.1c6.3-2.1,13.3-3.2,19.8-1.5c4.4,1.1,9,2.2,12.8,4.7c7.9,5.2,16.8,11.2,27,18
				c-6-1.4-11.9-2.9-17.7-5.1c-6.9-2.6-12.9-6.7-19.7-9.6c-7.3-3.1-15.1-1.7-22.2,0.8c-3.5,1.3-6.9-3.2-10.4-4.4
				c-7.7-2.8-16-8.8-24-6.3c-8.9,2.8-14.3,11.8-20.4,18.7c-2.2,2.4-8.9-1.3-12.1-1.5c-8.9-0.5-12.9,7.7-21.3,8.1
				c-2.6,0.1-9.2-0.6-9-2.4c0.5-2.8,16.1-6,25.9-11.1C475,442.6,481.6,447.1,484.9,443.4L484.9,443.4z"/>
			<path image-rendering="auto" color-rendering="auto" class="st1" d="M663.1,177.9c3.9-0.2,6.8,2.9,6.6,8.1
				c5.9-2.3,13.4-1.3,18.1,1.7c3.3,2,5.2,5.1,4.2,8.5c0.3,3.2,7.2,2.2,11.1,5.1c2.8,2.1,3.6,6.3,2.5,10.7c2.6,1.8,8,2,8.5,5.4
				c0.5,2.7-2.1,7.4-4.5,11c4.6,1.2,8.2,6.3,7.6,7.9c-1.1,3-6.1,6.9-6.7,8.5c-1.3,3.6,4.4,9.7,3.1,13.1c-7.2,3.9-11.3,5-15.5,9.5
				c-3.6,3.8-3.2,10.9-2.2,16.1c-2.5,2.8-12.7-1.2-17.5,1.1c-6.8,3.3-3.3,6-8,10.2c-3.1-0.2-12.2,2.6-13.8,3.6
				c-3.3,2.2-4,6.7-4.9,11.5c-3.5,0.1-12.7,1.5-15.1,3.8c-3.8,3.6-3.9,10.3-4.5,15.1c-5.1,0.8-11.8-0.4-15.4,5.9
				c-3.5,6.2-2.6,8.9-5,15.6c-3.8,1.4-14,3.3-17.1,6c-3.1,2.8-2.1,10.6-0.1,15.6c-4.7,2.6-9.3,6.7-12.9,11.3
				c-4.8,6.1-1.7,10.1-1.4,20.3c-4.4-6.8-6.2-17-4.4-21.2c3.6-8.1,6.5-10,11.9-13.8c-0.7-4.4-0.8-12.7,1.7-15.6
				c3.2-3.6,12.3-5.6,16.7-7.2c1.3-4.9,2.2-11.5,6.4-16c2.2-2.2,10.6-5.4,14.9-6.1c0.6-3.7,0.7-10.1,6.3-14.1
				c2.9-2.1,10.2-2.6,13.6-3.5c3-6.3,2.7-9,6-11.9c1-0.9,11.3-3.3,13.1-4.2c3.3-5.4,2.4-7.8,10.8-11.2c3-1.2,9.5-0.1,10.5-1.2
				c2.7-2.6,0.4-12,5.1-15.4c4.7-3.5,13-3.3,14.8-8.1c0.8-2.2-4-8.8-3.6-12.1c0.6-4.4,5.1-4.8,6.3-6.7c0.6-0.9-5.4-6.9-6.7-8.2
				c2.6-1.2,6.2-5.6,4.4-8.6c-3.3-1.7-6.2-0.1-7.7-2.7c-0.8-1.4,0.3-5.1,1-7.7c-7.2-7.1-9-5.4-16.4-9.3c3.8-5.8-1-6.7-4.2-7.6
				c-4.2-1.3-10.1-1-13.7,0.3c-0.2-3.2-2.5-9-5.2-9.7c-3-0.8-6-0.1-10.5,2.8C651,179.2,656.6,176.4,663.1,177.9L663.1,177.9z"/>
			<path image-rendering="auto" color-rendering="auto" class="st1" d="M731.8,215.4c-3.3-5.4-6.7-8.1-15.2-9.7
				c3.1-0.4,14.6-8.6,23.3,20.5c4.3,2.5,5.8,5.4,5.8,8.2c-0.1,4.7-4.3,9.4-7.2,12.3c4.2,1.9,6.7,6.5,7.9,16.7
				c0.8,7.4-3.5,9.6-7.9,14.2c-4.3,4.6-9.9,3.9-12.2,7.9c-3.1,5.4-2.4,8.9,0.8,15.5c-4.2,2.3-12.2,0.8-14.8,4.5
				c-1.7,2.5-2.5,11.8,1,15.8c-4.2,0-13.1,1.5-14.7,4.4c-1.9,3.3-0.4,7.9-0.9,11.6c-8.7,4.2-12.1,0.8-16,6.4
				c-2.4,3.5,1.5,14.2-2.8,14c-4.2-1.3-12-1.3-14.5,2.2c-2.2,3,0.6,9-0.1,12.4c-4.9,0.4-6.9,2.8-12.9,4.7
				c-8.9,1.5-6.7,13.1-7.4,20.6c-5.8-0.6-15.8-5.8-19.9-0.6c-3.3,4.2-4.9,7.2-7.2,14.5c-3.1-5.9-1.9-16.1,4.1-20.4
				c5.1-3.6,15.5,0.9,19.3,1.6c-1.9-6.4-2.7-13.9,3.7-20.4c7.2-7.3,11.4-5.6,16.6-4c-1.9-5.7-4.6-8.8,0.6-13.9
				c7.3-7.1,12.1-2.4,16-0.5c-1.5-4.2-6.9-10.8-0.7-17.4c7.8-8.4,11.1-1.5,16.9-1.8c-2-4-3.9-7.8-0.1-14c4.9-8,8.5-2.6,14.6-3.6
				c-2.8-4.6-3.1-10.8-0.6-15.7c3.1-5.9,9.9-3.6,14.8-3.1c-2.4-5.8-7-10.6-1.3-18c4.1-5.4,18.1-6.6,18.8-18.4
				c0.4-8.1-4.8-10.9-8.9-15.8c4.7-2.4,8.5-5,7.4-9.5c-0.5-1.8-2.8-5.6-4.5-7.2C731.8,227.5,734.1,219.2,731.8,215.4L731.8,215.4z"
				/>
			<path image-rendering="auto" color-rendering="auto" class="st1" d="M545.4,334.3c4.2-3.9,10-3.8,14.9-3.9
				c-0.6-4.7,0-10.8,5.4-13.7c3.4-1.9,8.5-4.7,14.1,0.6c-1.7-1.2-6.5-0.5-9.5,1.3c-5.3,3.1-7,8.5-7.6,14.7
				c-3.8,1.2-10.7,1.9-13.8,5.3c-3.4,3.8-4.6,8.9-3.9,14.9c-3.8,2.4-9,3.3-11.5,7.2c-3.2,4.8-2,11.8-1.3,17.2
				c-3.8,1.6-12.7,1.4-14.3,7.9c-1.3,5.1,0.5,10.3,2,19c-4.2-8-7.2-14.7-5.6-20.8c1.7-6.8,9.5-6.4,14.9-7.9
				c-1.3-6.5-2.6-13.6-1.3-16.4c2.6-5.6,8.9-6.2,14.2-8.1C542.4,345.6,541,338.3,545.4,334.3L545.4,334.3z"/>
			<path image-rendering="auto" color-rendering="auto" class="st1" d="M595,408.5c4.9-0.1,9.8,1.3,13.8,3.7c-7-1-6-1.6-14.9,1.7
				c-2.2,0.8-5.4,5.8-7.6,6c-3.6,0.4-8.9-4.4-12.5-4.7c-5.1-0.6-6.2,6.3-10.4,8.4c-3.4,1.8-6.5-2.2-10.2-3c-3.8-0.8-8.7,0.7-16,4.8
				c2.1-3.4,4.8-6.4,8.3-8.3c4.8-2.6,10.4,0.4,15.4-0.8c3.6-0.8,5.8-4.6,9.3-5.8c5.1-1.9,10.1,1.7,15.4,1.7
				C589,412.2,591.5,408.6,595,408.5L595,408.5z"/>
			<path image-rendering="auto" color-rendering="auto" class="st1" d="M781.1,405.1c-1.2,13.1,1.9,27.7-2.4,35
				c-7.5,12.8-20.3,22-39,26.3l14.8-11.2c5.3-4,15.5-11.4,21-23.9c5.5-12.5-3.5-25.3,6.7-39.1L781.1,405.1z"/>
		</g>
		<path image-rendering="auto" color-rendering="auto" shape-rendering="auto" class="st1" d="M356.8,394.5c1.1-4,3.1-5.6,7-6.2
			c7.5-1,13.3-2.8,19.9,2c5,3.7,8.6,9.2,7.9,15.6c-0.6,5.6-1,9.9-7.7,9.2c-10-1-13.3-2.2-19.6-8.9
			C360.2,402,355.2,400.4,356.8,394.5L356.8,394.5z M365.7,395.9c-1.2,3.1,1.6,5.3,4,7.4c4.1,3.5,6.1,6.5,11.2,4
			c2.7-1.4,4.2-2.3,2.9-5.1c-2.2-5-4.6-7.4-9.9-7.4C370.6,394.8,366.8,392.6,365.7,395.9L365.7,395.9z"/>
		<path image-rendering="auto" color-rendering="auto" shape-rendering="auto" class="st1" d="M621.4,63.3
			c13.7-0.9,29.7,19.3,35.9,27c2.5-5.2,2.8-15.6,10.1-16.1c6.2-0.5,19.1,7.6,23.6,16.7c2.1-6.8,1.5-17,9-17.9
			c8.5-1,20.2,8.6,22.5,19.7c1.3-8,10.4-15.1,17.5-13.4c7.2,1.7,15.2,9.8,15.8,18.6c3.3-9.7,13.3-12.2,17.4-10.8
			c7.6,2.6,15.6,11.3,13.8,21.9c7.8-6.5,13.3-7.7,18.3-3.5c5.7,4.8,8.6,8.8,6.4,24.2c5.9,1.4,12.4-0.4,16.1,3.3
			c14.2,14.6,16.9,45.8,21.1,65.3c3.6,16.8,9.4,32.8,4.8,49.1c22,6.7,44.9,16.1,47.5,42.7c0.8,9.2-2.4,21.3-4.1,29.3
			c12-0.3,32.9,5.6,40,14.3c3.9,4.8,13.6,19.1,12.4,28.1c-10-2.4-20.5-7.7-33.9-8.2c3.7,10.4,6.9,32.5,2.1,34.7
			c-3.5,1.7-17.9-5.2-23.1-12.9c-2.4,15.2-2.6,17-4.4,24c-2.3,1.2-9.5-5.3-13.6-12.4c-0.3,23.3-9.3,48.2-31.2,58.9
			c15.6,11.3,42.1,28.8,39.7,57.3c10.8,33.2,3.6,69.6-16.5,97.7c-9.6,14.9-30,26.5-5.8,38.2c20.5,3.3,41.2,23,43.8,45
			c-3.6-0.1-15.4-6.7-21.2-7.6c-5.6-0.8-7.2-0.2-10.4,1.7c11,7.6,22.6,30.4,22.1,47.1c-13.6-3.8-16.9-11.7-31.5-12.9
			c0.1,5.7,6.7,29.5-3.9,47.1c-8.2-7.9-25.8-26.6-33.2-33.6c-9-11.9-12.6-12.3-26.5-19.6c-3.3,7.4-4.9,24.3-13.1,37.5
			c-8.3,13.3-23.6,28.2-28.6,34.8c-3.1-13.9-10.4-27-12-46.4c1.5-17,0.7-19.3,4.3-36.1c-5.7,2.3-13.9,7.9-22.5,10.4
			c-12.4,3.6-25.6,4.9-33.3,15.9c-17.7-18.6,8.8-57.3,26.3-70.6c7.8-5.5,15-10.6,17.7-18.1c5.5-15.4,0.9-35.7,8.8-53.5
			c6.3-8.1,29.3-19.8,12.7-21.7c-2.8-0.3-31.9,25.2-45.7,18.1c-25.8,18-47.5,55-84,51.8c-32.1-2.8-51.2-3.8-75.3,15.9
			c-28.9,5.2-57.9,18.1-87.9,10.4c-31-7.3-56.9,12.9-87.4,14.2c-18.5,1-37.3-2-51.6-13.1c-8.5-6.5-14.9-17.9-19.9-27.7
			c-7.2-32.5,28-47.4,48.7-65.5c14.8-12.9,24.7-28.8,41.4-39.4c-10.6,1.3-23.6,3.1-30.8,5.1c-1.5-5.5,9.7-17.4,13.7-20.7
			c-1.9,0.1-20.4,1-30.4,1.5c4.9-12,22.9-16.9,33-19.3c-2.6-1.1-13.3-0.5-16-1.2c4.5-9.1,14-12.2,22.5-14.3c4.9-0.8,12.9,0.9,17.8,1
			c1.5,0,4.2-1.3,5.4-2.8c4.7-3.9,10.3-0.8,15.8,0.3c3.3-3.3,3.8-8.6,8.3-13.6c-0.2-2.4-5.8-4.2-12.9-1.6
			c-8.6,3.1-22.1,13.8-31.3,11.6c-22.2-5.4-49.3,6.6-63.8-7.9c-6.9-4.4-22.9-8.5-32.7-14.8c-9.5-6.2-20.7-22-0.8-35.7
			c7.2-10.4,7.9-18.6,31.2-27c5.2-9.2,16.5-16.5,29.5-17.2c17.9-1,36.1,7.8,38,10.6c16.1,22.3,60.2,18.1,72.8-5.2
			c4.1-7.5,10.1-10.3,16.4-11.3c9.4-1.4,19.4,1.3,24.3-1.6c2-1.1,5.5-12.2,6.7-15.6c5.7-16.9,10.8-24.7,20.3-40.3
			c12.5-20.6,28.6-38.6,51.4-49.1c5.1-14.6,15.4-32.9,32.9-39.9c13.6-5.4,33.3-2.6,46.5,5.9c14.3-5,22.7-12.9,21.8-16.9
			c-1.9-9-40-15.4-57.6-10c-35.3-5.7-63.7,14.2-99,15.2c-38.5,0.8-56.4,47.1-91.7,51.9c-35.8,4.9-75.4,13.6-107.5-2.8
			c-19.5-10-47.8-9-65.3-17.2c-8.7-4-24.5-22.9-21.7-45.5c11.1,2,12.5,5.6,19.3,3.3c1.8-0.6,6-16.6,5.7-19.7
			c12.4-0.3,27.4,13.3,31.2,14.4c3.2-10.7,7.4-8.9,7-15.6c9.5-1,29.2,7.4,34.1,12.9c-2.2-6.3-3.2-17.4-9.4-23.3
			c7.5-5.1,29.1,14.3,40,16.5c0.1-1.5-13.5-23.7-16-27.3c16.8-5,41.8,10.5,49.4,9c-3.3-8.4-9.2-14.3-16.9-23.1
			c6.1-9.2,35.7,5.8,46.9,8.1c-1-5.3-15.1-13.6-17.9-21.6c8.7-5.3,44.1,3.1,47.5,10.3c-8.1-10.7-9.8-16.6-14.8-22.9
			c7.2-6,39.8-4.2,50.9,14.7c-0.1-7.2-16.1-22.5-18.9-28.6c5.3-6.4,36.4,1.4,43.5,12c-2.7-7.9-1.5-21.3-6.7-29.5
			c4.5-2.1,28.4,11.3,36.8,17.1c-0.8-6.3,2.1-20.4-1.9-28.2c2.4-2.5,20.6,10.7,30.4,23.6c2.4-7.2-0.1-16,1.3-27
			c14.8-1.4,23.8,18.4,30,22.2C622.8,88.6,620.1,73.3,621.4,63.3L621.4,63.3z M631,77.4c0.5,10.8-0.3,18.6-7,26.3
			c-15.5-7.2-22-20.2-27.7-20.2c-3.7,1.7-0.3,23.1-9.2,25.9c-6.7-6.5-12.6-20.5-20.2-22.7c1.7,5.4,2.8,21.7-8.1,24.6
			c-6-6.7-14.5-13.3-23.2-12.5c3.1,8.3,4.6,19.9-0.4,25.4c2.7,1.9,7.2,9.7,10.1,10.6c1.1-1.5,4.6-10,5-17.4c12-0.8,21.1,2.8,32,7.4
			c7.9,4.9,1.1-5.9-2.3-8.7c-4.2-2.4,9-4.6,12.7-4c10.6,1.5,16.1,5.1,25,11.1c-0.5-2.8,0.4-5.4-0.3-9.5c-1.9-5.1,7.3-7,11.1-6.3
			c9.2,1.7,17,7.8,24.7,12.9c7.4,5.9-0.1-7.9,5.4-10c7.1-4,13.9,3,18.8,7.4c3.4,2,11.1,14.4,9,5.3c-2-4.2,1.3-4.1,4.7-4
			c10.2-0.1,16.4,9.7,19,18.4c2.8-2.9,4.6-6.7,6.8-10.1c5.1,10.3,11.9,21.3,9.5,33.3c-1.1,4-2.2,5.7-3.7,9.9
			c-2.1,5.1-5.3,9.7-3.6,15.5c-5.1,11.9-13.9,21.1-24.4,27.9c-10.6,6.8-20.3,11.4-25.1,17.5c-6,3.1-7,10.1-6.3,14.6
			c-5.4,0.3-10.9,0.8-15.9,3.1c-5.5,3.4-6.3,11-8.1,16.8c-3.4,3.5-10.2,4.7-13.3,9.2c-3.2,4.7-2.2,11.1-2.3,16.5
			c-2.4,3-9.2,3.3-11.6,7.5c-2.8,5-0.7,10.6-0.3,16.1c-1.9,4-9.9,6.7-11.8,11.5c-3.1,7.4-0.8,21.2,0.3,27c-3.1,0.1-9.7,0.3-12.2,2.4
			c-2.6,2.3-2.9,7.8-3.3,11.7c-4-0.6-13.8-5.4-21.2-4c-7,1.4-10.8,5.8-14.2,10.5c-4.7-3.7-13.2-5.2-19.5-4.6
			c-6.5,0.6-12.6,2.6-18.3,7c-8.5-6.8-14.6-7.6-19.5-5.4c-12.9,5.7-18.2,31.7-38.9,25.8c-13.6,7.3-35.4,11.7-49.1,6.3
			c-4.7-23.4-32.7-22.7-51.2-22.8c-12.5,10.1-34.5,16.7-39.6,34.6c-5.6,5.6-15.2,9.5-14.5,12.9c1.9,9.5,23.8,18.2,37.8,17.7
			c18.1,15.2,38.6,8.7,63.8,11.8c11-16.4,37.4-14.1,50.7-4.7c4.3,0.6,13.1,1,16.6,1.5c4.9,1.5,13.8,8.7,15.6,10.7
			c6.7,5.2,9.3,1.8,16.5-0.8c6-3.1,12.9-8,18.8-11.4c7.2,3.5,17.4,8.8,25.6,8.6c11-1,11.2,2.2,26.1-0.8c6.8,1.6,15.2,0.7,20.2-3.8
			c5.1-4.7,7.4-14.4,15.8-13.2c8.5,1.2,15.2,4.3,19.3,7.5c3.4,2.6,8,8.4,8.9,16c-9.9-7.3-13.1-10.6-17-12.5
			c-4.9-2.4-8.5-4.2-11.7-3.1c-6.3,2.1-9.5,10-16,15.2c-3.1,2.5-7.2,5.8-11.1,6.4c2.1,3.5,2.5,4.9,1.9,8.5c3.7-2.6,8.2-2.4,11-4.3
			c10.6-2.2,22.1-3,29.3,1.5c-6.3-0.1-19.4,1.5-23.6,6c-7.5,4-12.4,1.2-17.4,9.7c-0.3,6.2-2.4,20.5-9.2,22.5
			c-12.4,6.5-15.9,20.5-23.4,31.3c-15.9,1.9-23.8,15.7-33.4,27c-7,7.9-15.9,14.5-26.8,16.1c-9.7,3.6-20.9-5.1-28.2,5.6
			c-3.8,8.3-12.8,6.1-19.4,6.9c-6.6,10.4-22.2-1.4-30,4.7c-5.7,9.3-5.9,13.6-12,22c-7-4.9-16.9-3.7-18.5,5.1
			c-9.5-4.4-19.2-9.7-29.4-12.3c-6-4-11.1,5.5-15-1.7c-3.2-2.2-7.3-9.5-9.2-14.2c-6.8,10.2-0.9,30.9,10.8,37.3
			c21.8,12,51.2,20.5,72-1.7c12.5,4.5,23.9,1.8,35.1-0.6c9.5-1.9,12.5-14.1,21.7-16.1c7.7-1.7,12.6-8.3,19.2-11.9
			c10.1-5.4,24.7-4.8,35.8-8.1c14.2-4.2,25.3-9.2,36.5-19.2c3.6-2.5,4.4-8.1,6.8-13.1c5.8-2.9,11.7-3,16.9-8.8
			c6-6.7,11.1-19.4,12.2-26.7c5.5,8-3.1,22.9-9.1,33.2c-4.2,4.9-15.1,5.3-15.1,5.3s-3.1,12.7-14.5,21.5c-9,7.1-23.8,12.4-31.7,14.7
			c-7.4,2.2-16.7,0.4-24,2.8c-6.3,2.1-12.1,6.1-16.7,11c-4.2,4.4-13.1,2.7-16.1,4.9c-2.8,2-5.2,5.1-7.6,8.1c5.9-0.5,12-0.1,18.1,2.6
			c31.4,3.5,64.9-5.4,92.5-19.4c21.5-23.6,51.2-3.3,77.6-9.5c26.6-6.3,39.7-27.8,60.3-40.1c-0.9-7.4,6.5-15.5,7-18.7
			c1-7.4-5-10.4-2.6-17.2c1.4-4,5.3-6.5,7.5-10.1c3.7-6,0.3-13.1,2.2-19.3c1.3-4.2,5.6-7.4,6.7-11.8c2.3-8.8-4.9-16.2-4.9-24.8
			c7.6,10.3,12.8,11.4,12.6,24.5c-0.1,5.5-5.8,9.6-6.7,14.8c-1.3,7.4-0.9,15.3-4.9,21.9c-2.2,3.8-6,7-4.1,12
			c2.5,6.6,1.5,13.8-0.3,20.5c11.9,2.8,21.5-4.3,30.5-9.9c-6.7-4.5-14-9.2-17.9-17.4c-2-6.9,1.9-21.2,2.2-27.3
			c2.8,9.6,2.2,21.3,4.6,26.1c2.8,6,6.6,6.5,13,9.2c1.7,0.1,0.7-7.6,0.3-10.2c-0.6-4.3,1.5-8.3,0.1-12.2
			c-2.8-7.6-10.7-16.7-5.2-23.8c0.6-0.7,4.8-10.6,5.6-10.1c1.4,1.3-0.9,13.3-2,16.3c-2.2,5.9,6.1,11.3,6.8,17.2
			c1,9.1,1.5,18.1,3.3,27c4.7-1.2,9.3-0.5,14.2,3.6c3.1-4.2,6.2-8.4,9.7-12.3c4.5-5.1,22-20.8,36.1-14.2c-3.2,1.1-18,6.5-21.1,9
			c-10.1,8.3-19.5,16-26.3,28.9c-6.8,12.9-28.9,33.4-17,57.6c-13.8,13.8-3.8,34.9-27,38.8c0.3,4.1-5.3,8.4-8.6,11.3
			c4,4,12.2,17.3,12.2,23.1c13.3-5.4,18.8-11.1,29.3-11.9c-3.5,7.6-6.3,23.8-2.8,27.6c4.2-2.4,11.4-4.6,16.8-3.4
			c6.5,1.5,9.9,7,12.2,12.8c3.3-5.8,5.7-12,6-19.1c12.8-9.7,25.5,4.9,39.1,14.2c0.3-7.2,7.9-13.3,14.7-15.8
			c-1.7-2.6-7.4-6.8-9.8-9.5c-3.1-3.4-5.6-3.8-9.3-6.3c-1.7-1.2-2.8-3.1-4-4.8c-4.2-5.7-6-12.6-9-18.9c7.4,7,9.3,13.3,14.9,17.8
			c1.7,1.3,4.2,0.6,6,1.7c6.1,3.5,10.9,9,14.7,15.1c2.3,1,5.1,7.8,7.6,9.1c0.5-1.7,2.8-6.6,4.1-10.6c1.6-5.1,3.9-5.6,9-6.4
			c-1.9-3.4-5-9.1-6.7-11.9c-5.3-4.1-15.4-3.8-22-7.2c-1.1-2.6-1.7-10.7-4.2-12.2c-2.1-0.9-7-3-8.7-4.5c8.3-4,16.5,0.8,16.7,13.8
			c3.2,1.3,17.7,3.3,20.6,5.1c-6.6-6.1-4.7-19-2.9-22.7c-15.4-2.8-20.5-16.5-35-21.5c-9.5-3.3-20.3-7.9-30.4-8.9
			c-12.1-1.3-23.8,2.6-35,9.5c14.3-16.8,21.3-14.1,33.6-16c11.1-1.7,23,6.5,33.9,9.5c20.4-15.9,36.4-37.5,42.4-63
			c6.7-28.8,0.1-63.4-17.4-87.3c-5-6.9-16.8-11.5-24.3-14.9c-12.8-5.8-26.8-8.2-40.4-11.3c-13.2-3.1-27.9-0.1-40.3,5.8
			c-4-5.7-14.7-8.5-22.8-8.3c-4.1,1.7-9.5,6.6-10.8,16.9c-2.3-10.5-3.8-14.1,1.2-19.3c1.1-1.5,2.5-2.6,4-3.5
			c-4.2-5.9-8.6-11.7-13.7-17c-4.7-4.8-10.1-8.6-16.1-11.8c-10-5.2-21.7-4.9-33.8-3.2c15.4-9.2,22-7.2,32.5-5.3
			c6.4,1.1,12.2,4.6,17,8.9c8.5,7.7,15.6,16.8,22.2,26.2c6.6,1,12.6,2.5,19.4,5.8c7.2-3,20.7-5.6,28.5-5.8
			c19.7-0.7,32.8,3.1,51.6,7.9c10.1-21.3,35.7-26.7,32.4-55.3c-0.7-6.2,2-12.4,2.3-17c0.3-4.7-2.2-9.2-3.5-13.8
			c-2.4-8.5-4.6-17.2-9.3-24.7c-6.7-10.5-18.6-22.2-27.1-31.3c8.5,4.9,17.9,10.2,20.9,12.9c4.9,4.3,5.7,7.2,9.3,12.6
			c3.1,2.4,8.5,7.6,12.9,7.6l8.1,0.1c-1.7,4-12.2,6.5-17.2,1.1c8.4,9.1,13.9,23.6,11.9,33c-0.2,0.9-0.1,2,0.1,3.2
			c2.8-4.5,7-8.3,12.3-7.2c1.7,0.3,3.3,1.5,4.7,2.9c0.5-1.8-6-8.2-7.1-11.1c0.6-1.6,1.3-2.2,3.6-0.9c1.2,2.8,7.6,6.9,7.6,6.7
			c1.3-6,6.8-10.9,13-11.3c-0.1-0.6-2.5-2.5-4.7-4.3c-1.9-1.6-5.3-1.9-7.3-5.4c0.3-1.5,13.3,2.3,17.2,4.9c0.2-3.2,1.1-6.4,2.4-9.4
			c0.6-1.6,1.7-2.8,3-3.8c-8.9-3.2-19.4-4-29.6-1c-3.2-4,14.5-34.5-0.3-47c-1.5-25.6-27.9-11.1-39.7-29c-3.5,0.4-8.8,2.7-10.1,2.4
			c-5.7-1-6.2,0.1-11.8,1.8c-2.7,0.8-4.8,4.8-6.2,7.3c-3.2,5.7,0.8,11.1-4.4,18.8c-0.3-9.8-6.3-21.8,1.9-29.4
			c5.6-5.3,15.8-10.6,24.5-9.9c3-6.5,7.1-10.4,2.6-18.8c-8-15,0.6-41-9-57.1c-2.4,4.9-3.6,15.4-2.6,18.8c2.8,9.6,1.7,23.8-6.7,30
			c-7,5.1-7.9,12.8-7.4,21.1c0.3,6-9.8,9-11.3,14.9c-2,7.9,2.2,15-3.2,22.5c-2.8,3.9-1.8,9-5,12.4c-5,5.4-2.6,10-0.3,14.8
			c-5.8,0.1-14.7-3.7-18.2,4c-2.4,5.4-0.3,7.2,2.8,14.9c-9.2-2.4-12.6-1.9-15.2,3.2c-1.6,3.1-2.5,11.1,0.5,18.8
			c-5.7-1.8-14.3-0.1-19.1,3.4c-3.5,5.7-8.9,13.1-9.2,20.2c-6.1-3.5-11-6.8-15.2-3.1c-4,3.5-8,14-10.1,18.1c-4.6-4.2-7.8-10.6-14-8
			c-6.1,2.5-9.3,5.5-12.7,12.2c-7.8-4.5-12.1-9.5-19.9-8.3c-8.5,1.3-14,5.3-21.4,11.4c2.7-6.3,11.3-15.6,18.9-17.4
			c7.5-1.9,14.2,3.7,19.9,5.2c5-7,7.4-10.1,13.1-10.1c7.1-0.1,7.9,2.4,14.2,5.9c1.5-4.5,3.4-11.5,7.8-14.6c4-2.8,10.4-1.8,14.7-0.1
			c2.2-4.6,2.8-11.8,7.8-16.8c3.4-3.4,10.1-6,15.8-5.1c0.2-4.4-0.8-12,2.7-17.1c2.2-3.1,9-4.2,14.1-3.8c-2.6-4-2.8-8.9-1.2-13.2
			c1.5-3.8,9.6-7.5,14.9-7.4c1.3-5.3,2.2-11.8,3.6-15.6c2.2-5.5,6.3-7,7.6-12.2c2.4-9.3-0.5-17.5,4.9-22.5c8.6-8-0.5-22.2,9.7-29.3
			c8.5-5.8,12.7-17.2,9.5-26.6c-2.2-6.8-1.3-15.9,1.7-21.6c1.9-11.9,0.4-21.3-4.4-26.4c-4.1-4.3-10.6-5.4-19.5-2
			c2.6-11.7,1.4-24.7-2.5-27.6c-4.7-3.5-11.1,4.8-15.4,7c-0.8-13.3-4.2-16.8-13.3-20.4c-5.1-2-13.7,15.5-23.6,10.3
			c-0.5-8.5-6.3-20.2-9.9-20.2c-5.2-0.1-9.2,8.9-15.6,13c-4.2-0.6-8.9-17.6-16.6-17.1c-5.8,0.3-6.7,10.5-10.6,14.9
			c-7.7,0.6-14.2-11.1-25.4-10.7c-5.8,0.2-4.3,8.9-10.5,14.9C652.6,96.8,641.5,81.5,631,77.4L631,77.4z M497.2,106.3
			c12.4,8.9,15.9,22.8,14.7,30.4c-1.3,7.6,4.7,13.6,9.7,19.9c2.2,2.8,2.5,6.7,3.3,10.2c2.4,10.6,1.3,21.5-1.5,31.8
			c16.3-1.5,33-3.8,48.6-8.5c-0.7-2.7-2.1-5.1-3.1-7.7c-3.1-8.1,4-14.7,4.4-23.1c0.1-3.8-1.6-14.4,0.5-17.2
			c4.2-5.8,10.2-6.1,16.1-9.7c-6.6-2.7-27.3-9.7-34.5-10.4c0.8,5.4-2.2,13.1-5.7,19.7c-9.6-1.7-15.7-10-22-16.5
			C519.6,116.8,510.1,110.4,497.2,106.3L497.2,106.3z M627.5,112c-0.9-0.1-1.8,0.1-2.3,0.4c-3.1,1.9-1,6.7,0.2,10.2
			c-0.7,6.4-0.6,6-1.9,9.5c-6.8-3.1-24.9-17.8-37.4-14.4c0.9,2.9,3.8,4.6,5.6,6.3c3.5,3.1,3.7,3.8,4.9,8.5
			c-1.4,3-17.4,11.1-18.6,12.4c-1.5,1.7-0.1,7.4,0.8,13.8c0.8,6-4.9,10-4.5,16.1c0.3,4.7,3.5,8.4,4.7,12.9c5-1.9,9.9-4,14.5-6.5
			c15.6,3.1,30.9,0.9,46.2-0.3c-0.6-0.8-1-1.7-1.4-2.7c-2.7-5.8-1.5-12.6,1.5-18c1.3-2.6,3.1-4.7,4.9-6.8c5.3-6.7,9.5-15,9.3-23.8
			c-7.4-4.3-10.8-11.3-18.8-14.6C633.7,114.3,630.3,112.3,627.5,112L627.5,112z M665.7,118c-2.5,0.3-0.5,10-4.4,12.9
			c-0.1,10.1-4.9,19.6-11.1,27.4c-0.4,0.6-2.6,3.1-2.2,2.6c-2.4,3.5-4.9,7.6-4,12c0.7,2.9,2.4,5.4,4,7.8c12.2-0.5,24.3,0.4,36.4,6
			c11.1,4,15.4,9.2,15.6,14.6c1.7-1.9,3.3-4,4.8-6.1c5.4-5.9,6.1-12.9,7.1-20.2c2.2-4.2,2.6-5.1,4.3-9.8c2.8-5.7,3.9-12.4,0.8-18.3
			c-1.3-9-5.5,3.3-10.8-1.4c-5-4.7-4-14.8-11.6-17c1.6,5.6-4.7,11.2-9.7,7.2C678,130.5,673.2,122.6,665.7,118L665.7,118z
			 M476.6,121.8c-2.1,0.1-4.2,0.8-7.8,0.9c4,10.3,15.8,21.9,11.9,31c-6.3-6.9-33.2-17.2-40.4-15.2c3.9,6.8,9.6,20.5,15.7,25.4
			c6.1,4.9,12.1,12.8,12.4,21c0.3,8.1-3.5,16.4-1.8,24.5c0.9,4,2.4,7.8,4,11.5c0.6,1.5,1.5,3.3,2.6,4.6
			c12.8-10.5,25.9-20.8,41.8-25.3c3.1-10.1,5.4-19.2,2.2-31.8c-0.2-0.6-1.9-7.1-4.7-10.4c-2.8-3.3-7.5-13.1-11.7-20.1
			c-5.9-7.7-9.6-11.5-16.8-14.5C480.6,121.9,478.6,121.6,476.6,121.8L476.6,121.8z M413.1,151.7c5.3,7.2,10.2,20.6,11.1,27
			c-15.7-1.7-36.2-11.6-47.8-12.8c5.6,12.4,10.6,20.2,7.7,26.2c-2.2,6.9-5.4,13.9-2.4,21.5c2,5.1,4.7,10.2,4.9,15.8
			c0.3,5.6-3.7,16.9-6.1,21.9c20.8,1.7,44.3-0.3,64.4-5.1c8.8-2.1,15.2-10.2,22.5-16.1c-4.2-5.3-6-12-7.9-18.2
			c-2.6-8.5,1.1-17.7,1.3-26.4c0.1-4.4-3.1-8.3-6.1-11.5c-2.8-3.1-8.2-12.2-13.8-14.9S417.5,151.9,413.1,151.7L413.1,151.7z
			 M352.6,178.3c2,9.7,0.8,19.9-0.3,25.4c-13.2-6.9-24.1-11.5-35-17.5c-1.7,10.8-1.5,19-8.9,20.8c-5.4,1.3-19.5-13.4-26-12.5
			c-4.1,0.6-4.5,9.2-5.1,15.6c-0.2,1.8-17.7-4.2-19.3-0.5c-4.3,10.1,10.9,18.6,19.3,20.3c20.4,4.2,35,6.7,50.5,12.6
			c11.6,4.4,23.1,8.5,37.5,7.6c3.8-2.6,10.1-4.4,11.7-10.1c1.8-6.1,3.3-14-0.7-20.9c-1.9-3.2-3-6.7-3.1-10.4
			c-0.3-6,1.6-11.7,3.5-17.4C371.1,190.2,357.7,185,352.6,178.3L352.6,178.3z M638.4,221c-8.3,0.3-21.7,7.4-27.5,14.1
			c-3.3,3.8-8.1,9.9-9.9,15.2c9.7-5.7,25.5-6.1,38-4.6c2.3-2.8,14.7-4.2,18.8-4.8c1.7-7.9,3.2-9.8,6.5-15
			C657.2,224.4,647.4,220.6,638.4,221L638.4,221z M627.9,253.3c-8.3-0.2-27.4,2.8-37.5,8.5c-14.6,8.4-37.7,23.6-43.6,50.7
			c-12.6,13.2-15.1,32.9-23.2,48c10.1-3.8,20.2,0.3,24.5,7.1c8.3-8.8,7.4-10.8,15.2-12c5.3-0.8,10.8,0.8,15.5,3.3
			c1-3.5,3.2-6.3,6-8.2c2.3-1.5,5-2.4,8-2.4c-1.2-8-1.8-16.9,1.5-24.3c1-2.2,3-7.2,10-11.3c-0.1-5.4-1.3-11.9,1.1-16
			c2.9-5.1,6.9-8.2,11.4-10c-1.4-4.6-0.1-12.3,1.5-14.8c3.1-4.8,8.6-8.2,13.8-10.6c0.6-2.4,1.2-4.8,2.1-7.2
			C632.9,253.6,630.7,253.4,627.9,253.3L627.9,253.3z M917.7,337.2c-1,2.2-2,5.1-2.4,7.6c8.3,1.6,18.9,5.4,21.8,7.4
			c0.9-3-4.7-11-7.4-13.3c-1.9-1.7-4.2-3.2-6.5-4.5c-0.3,0-0.5-0.1-0.8-0.1C920.5,334.2,918.2,334.7,917.7,337.2z M904.5,353.5
			c-2.5,1.3-3.1,1.9-4.1,2.6c-3,2-4.4,7.7-3.9,11.3c4,7.9,13.2,14,16.7,11.7c0.7-9.3,0.1-16.1-2.7-20.6
			C909.2,355.3,905.7,352.9,904.5,353.5L904.5,353.5z M887.1,371.9c-2.3-1.8-3.6-5.4-8.1-4.4c-4.8,1.1-4.4,5.1-4.9,8.6
			c2.7,4.7,7.6,11.4,10.5,12.4C886.3,384.9,886.1,377.4,887.1,371.9L887.1,371.9z M459.8,464.2c1.4,20.2-13.9,40.5-34.5,52.3
			c-2.7,6.7-34.9,30.2-41.9,38.9c-11.9,14.7-26.3,20.9-38.5,35.4c-5.1,6-11.1,10.1-12.8,11c2.2,3.7,2.3,8.9,7.9,11.7
			c4.1-1.4,9.2-3.7,13.1-2.9c1,0.2,1.9,0.5,2.8,0.8c0.8-2.4,2.2-4.7,3.1-6.3c10.6-18.8,28.6-32.1,46.3-44.1
			c16.4-11.1,30.9-25.1,48.4-34.5c5.3-2.8,12.6-7.2,18.1-9.7c5.1-2.3,5.4-14.5,7.4-16.7c4.9,17.6-4.7,25.3-13.8,29.7
			c-19.8,9.7-32.7,21.5-50.5,34.3c-10.9,7.9-22,17.3-31.6,26.9c-7.3,7.4-16.7,14.2-20.2,24c3.3,2.2,6.5,4.7,9.9,6.3
			c5.4,0,12.7-9.6,20.5-3.6c0.9-5.7,5.4-18.7,11.5-18.9s11-3.1,12.8-2.4c10.9,4.4,18.2-6.5,29.1-2.8c9.9-11.3,23.5-14.9,34.5-12.2
			c9.7-0.2,19-11.3,22.9-14.9c9.5-11.8,20.1-24.5,35.5-28c5.4-9,9-19.7,17.6-26.4c5.4-1.9,8.5-8.9,9.7-16.2c0.4-3.3,1-6.7,2.6-9.8
			c3.1-6,4-2.2,3.4-7.1c-1.1-3.5-3.2-3.6-3.5-6.1c-5.1-0.3-10.4-3.8-14.8-0.8c-7.4-0.3-15.2,0.9-22.3-1.9c-4.4-0.1-8.8-6-12.8-3.1
			c-4.7,2.6-9.1,6.1-14.2,8.1c-9.5,3.8-21.2,5.4-29.7-1.5C471.4,469.1,466.2,464.8,459.8,464.2L459.8,464.2z M449,468
			c-4.7,1.3-12.2,9.2-15.6,12.5c-6.5-3.6-12.4-3.3-18.6,0.3c-11.2-2.1-21-1.6-29.7,3.8c6.4,2.6,20.6,4.1,28.4,4.4
			c-4.4,0.6-35.8,4.4-42.2,13.3c10.4-4.2,28-2.8,37.1-3.6c-7.4,5.2-17,11.1-23.7,18.1c8.6-1.8,23.5-2.1,32.3-2.7
			C431.3,502.5,454.8,482.3,449,468L449,468z M872.6,670.8c3.5-1.3,14.2-1.3,24,3.9c-2.9-13.6-17.5-22.8-26.4-24.3
			C867.6,655.2,867.4,667.7,872.6,670.8z M702.7,709.7c4.9-7.8,17.9-9.9,22.7-11.5c0.7-5.1-6.8-17-10.7-20.1
			C705.8,683.8,693.6,704.2,702.7,709.7z M874.1,690.8c-7.9,1-12,13-10,17c3.5,2,13.3-3.2,22.5,5.8
			C885.7,702.8,881.7,695.3,874.1,690.8L874.1,690.8z M835.8,721.2c6.9,14,20.6,24.6,22.4,26.6c7.5-10.6-1.7-36.6-7.8-42.7
			C845.3,705.1,833.1,713.1,835.8,721.2z M768.6,714.5c-3.6,0.3-7.4,1.7-10.4,4.4c-3.8,10.3,2.9,31.8,5.8,40.9
			c5.4-5.8,18.4-25.2,20.8-33.3c-1.5-3.8-4.8-9-8.7-10.8c-1.1-0.6-2.5-0.9-4-1.1C771,714.5,769.8,714.5,768.6,714.5L768.6,714.5z"/>
		<g transform="matrix(1.0886 0 0 1.0886 -3.5562 -86.592)">
			<path class="st14" d="M293.7,633.6c4,8.3,4.9,10.1,11.9,8.9c4.7-4.9-1.3-17.1-4.2-25C297.3,620.2,293.2,623.2,293.7,633.6
				L293.7,633.6z"/>
			<path class="st14" d="M317,622.8c8.2,0.3,12.8-3.1,13.1-10.7c0,0-4.5-6.7-9-11.9c-3.8-4.4-4.4-17.4-11.3-17.3
				c-8.4,5.4-1.2,18.8-1.2,25C309.5,616.7,309.9,621.7,317,622.8L317,622.8z"/>
			<path class="st14" d="M466,511.7c0.6,5-3,13.4-8.3,20.9c-7.8-5.4-7.8-13.4-6.5-19.7L466,511.7z"/>
			<path class="st14" d="M433.8,505c0.4,6.5,0.1,14.1-4.2,19c-6.9-3.9-8.8-12.4-7.7-22.7L433.8,505z"/>
			<path class="st14" d="M294.9,493.3c0,0,7.6-0.6,14.2,1.7c5.4,11.1-2.1,14.9-7.7,20.3C296.4,507.2,294.6,504.7,294.9,493.3
				L294.9,493.3z"/>
			<path class="st14" d="M320.6,503.4c5.8-0.9,11.5-4.7,17.2,1.8c0,11.2-5.1,12.7-7.7,18.5C324.4,517.7,320.8,510.1,320.6,503.4
				L320.6,503.4z"/>
			<path class="st14" d="M402.9,494.2c-7.1,20.9-10.8,37.3-16.1,37.5c-5.6-1.7-8.1-18-6-30.4C380.1,498.4,396.5,490.5,402.9,494.2z"
				/>
			<path class="st14" d="M288.4,487.8c-4.2,7.3-7,32-10.7,30.4c-12-7.9-8.5-27.2-1.2-36.4L288.4,487.8z"/>
			<path class="st14" d="M325.4,656.9c1.3-6.3-0.5-13.8-7.2-23.2c-9,5.6-8.7,11.1-8.3,16.7C313.8,661.4,321.4,657.6,325.4,656.9z"/>
			<path class="st14" d="M350.4,660.8c2.7-10.8,0.3-16.2-9.5-23.8c-6.4,8.3-8.6,15.7-7.2,20.9C337.6,663.7,344.9,663.5,350.4,660.8z
				"/>
			<path class="st14" d="M360.5,657.2c10.4,3.5,12.7-1.1,15.5-5.4c-1.8-6.7-7.1-11.3-13.7-14.9C359.7,644.2,357,651.5,360.5,657.2
				L360.5,657.2z"/>
			<path class="st14" d="M491.1,506c3.2,9.1,1.5,14.1-4.8,20.9c-5.7-7.3-6.7-13.8-8.3-22L491.1,506z"/>
			<path class="st14" d="M518.5,507.4c-0.3,8.4,1.5,13.5-9,19c-1.9-2.6-7.5-9.9-5.4-19H518.5z"/>
			<path class="st14" d="M427.8,634.2c4.4,1.6,8.8,0.2,13.1-3c-0.6-6.8-2.6-12.7-12.5-13.1C422.3,628.5,424.9,631.4,427.8,634.2
				L427.8,634.2z"/>
			<path class="st14" d="M377.8,635.6c4.3,7.9,7.8,12.4,14.2,10.1c8.8-2,7.6-4.8,9-8.3c1-2.7-4.9-8.4-8.3-12
				c-4.7-5.1-6.6-18.7-14.3-21.3C369,612.2,374.8,630.3,377.8,635.6L377.8,635.6z"/>
			<path class="st14" d="M347.1,506.1c5.8-0.9,11.5-4.7,17.3,1.8c0,11.1-1.5,13.2-10.1,17.9C349.2,517.4,347.3,512.9,347.1,506.1
				L347.1,506.1z"/>
			<path class="st14" d="M464.8,622.8c4.6,0.8,8.6-1.4,12.3-5.4c-1.7-6.5-11.3-22.7-21.2-21.3C451.8,607.4,461.4,620.5,464.8,622.8
				L464.8,622.8z"/>
			<path class="st14" d="M493.4,606.6c4.6,0.5,8.5-2,12-6.2c-2.2-6.4-5.6-11.5-15.4-9.5C486.6,602.4,489.9,604.5,493.4,606.6
				L493.4,606.6z"/>
			<path class="st14" d="M516.2,588.4c4.7-0.3,8.1-3.3,10.9-7.9c-3.2-6-7.3-10.6-16.7-7.1C508.9,585.4,512.4,587,516.2,588.4
				L516.2,588.4z"/>
			<path class="st14" d="M534.6,561.4c4.7-0.6,7.9-3.8,10.4-8.5c-3.5-5.8-7.9-10.1-17-6.2C527.1,558.8,530.8,560.3,534.6,561.4
				L534.6,561.4z"/>
			<path class="st14" d="M354,596.6c-2.1-6.5-5.4-11.7-15.2-9.9c-3.5,11.5-0.3,13.7,3.1,15.8C346.5,603.1,350.4,600.7,354,596.6z"/>
			<path class="st14" d="M377.8,576.2c-2.2-6.4-10.9-19.9-20.7-17.9c-3.4,11.5,5.2,22,8.8,24C370.5,582.8,374.4,580.3,377.8,576.2z"
				/>
			<path class="st14" d="M389.2,563.5c4.7,0.4,8.5-2.2,11.9-6.3c-2.3-6.4-5.8-11.5-15.5-9.4C382.4,559.4,385.7,561.5,389.2,563.5
				L389.2,563.5z"/>
			<path class="st14" d="M423.7,536.3c-2.2-6.4-5.6-11.5-15.4-9.5c-3.3,11.6,0,13.8,3.5,15.7C416.5,543,420.3,540.5,423.7,536.3z"/>
		</g>
		<g>
			<path class="st15" d="M540,409.4c2.9,4.4,8,9.4,13.3,8.5c7.9-1.3,18.9-8.3,26-12c-4.7-4.3-14.5-10.3-21.5-9l0,0
				C551.1,398.1,546,404.1,540,409.4z"/>
			<path class="st1" d="M566.5,419.1H539c3.8,2.9,8.4,4.6,13.3,4.3C557.4,423,562.3,421.2,566.5,419.1z"/>
			<path class="st1" d="M581.1,401.3v9.4c5.6-2.6,11.2-3.2,12.8-2.4c7.9,3.8,12.1,10.8,21.1,9.7c-7.8-5.1-11.7-8.7-19-14.8
				c-1.9-1.3-6.8-0.6-8.8,0.1C584.8,404.1,581.8,402.2,581.1,401.3z"/>
			<path class="st1" d="M510.6,423.3c7.6-1.7,17.2-4.9,23.6-9c1.1,1.5,2.4,2.8,3.8,4v-17.7c-3,2.3-5.8,4.9-8.4,7.6
				C521.5,417.1,516.6,416.4,510.6,423.3z"/>
			<path class="st1" d="M538,400.4v17.4c0.3,0.3,0.7,0.6,1,0.8h27.5c5.8-2.8,10.8-6.5,14.2-8.1c0.1-0.1,0.2-0.1,0.3-0.1v-9.2
				c-5-6.7-13.6-9.3-21.8-9.9l0,0h-2c-4.4,0.3-8.6,2.6-12.4,4.7C542.5,397.2,540.2,398.8,538,400.4z M539.9,408.8
				c6-5,11.2-10.8,17.9-12l0,0c7.1-1.2,16.9,4.6,21.5,8.7c-7.1,3.5-18.1,10.1-26,11.4C548,417.7,542.9,413,539.9,408.8z"/>
		</g>
		<path class="st1" d="M566.8,407.3c-3.7-2.2-7.4-0.3-11,0.8c0.7-2.7,0.2-5.1,8.1-7.6c-3.3-3.1-8.2-3.5-11.9-1s-5.1,7.3-3.3,11.4
			c1.8,4.2,6.2,6.5,10.6,5.6S566.8,411.8,566.8,407.3L566.8,407.3z"/>
	</g>
	<polygon class="st3" points="563.6,214.3 441,2 550.3,1 613.8,111.7 677.7,1.6 732,1.6 759.8,49.6 668.7,206.2 668.7,206.2 	"/>
</g>
</svg>
