<svg enable-background="new 0 0 425.2 113.15" viewBox="0 0 425.2 113.15" xmlns="http://www.w3.org/2000/svg" xmlns:xlink="http://www.w3.org/1999/xlink"><linearGradient id="a" gradientUnits="userSpaceOnUse" x1="0" x2="101.8313" y1="50.9157" y2="50.9157"><stop offset="0" stop-color="#fff" stop-opacity=".6"/><stop offset=".1297" stop-color="#d6f7f6" stop-opacity=".6519"/><stop offset=".3675" stop-color="#90e9e6" stop-opacity=".747"/><stop offset=".5821" stop-color="#59deda" stop-opacity=".8328"/><stop offset=".7657" stop-color="#31d6d1" stop-opacity=".9063"/><stop offset=".911" stop-color="#19d1cb" stop-opacity=".9644"/><stop offset="1" stop-color="#10cfc9"/></linearGradient><linearGradient id="b" gradientUnits="userSpaceOnUse" x1="111.2692" x2="9.4379" y1="62.2302" y2="62.2302"><stop offset="0" stop-color="#fff"/><stop offset=".0849" stop-color="#f6f7f8"/><stop offset=".2235" stop-color="#dee3e5"/><stop offset=".3985" stop-color="#b6c2c6"/><stop offset=".6031" stop-color="#7f949c"/><stop offset=".8298" stop-color="#395a66"/><stop offset="1" stop-color="#002a3a"/></linearGradient><path d="m50.92 0c-28.12 0-50.92 22.8-50.92 50.92s22.8 50.92 50.92 50.92 50.92-22.8 50.92-50.92-22.8-50.92-50.92-50.92zm0 83.45c-17.97 0-32.53-14.56-32.53-32.53s14.56-32.53 32.53-32.53 32.53 14.56 32.53 32.53c0 17.96-14.57 32.53-32.53 32.53z" fill="url(#a)"/><path d="m60.82 11.31c-28.12 0-50.92 22.8-50.92 50.92s22.8 50.92 50.92 50.92 50.92-22.8 50.92-50.92-22.8-50.92-50.92-50.92zm0 83.45c-17.97 0-32.53-14.56-32.53-32.53s14.56-32.53 32.53-32.53 32.53 14.56 32.53 32.53-14.56 32.53-32.53 32.53z" fill="url(#b)"/><g fill="#002a3a"><path d="m130.12 60.01c0-8.12 5.73-14.07 13.9-14.07 5.23 0 8.4 2.22 10.29 4.78l-3.84 3.56c-1.5-2.11-3.56-3.17-6.17-3.17-4.89 0-8.12 3.67-8.12 8.9s3.22 8.95 8.12 8.95c2.61 0 4.67-1.11 6.17-3.17l3.84 3.56c-1.89 2.56-5.06 4.78-10.29 4.78-8.17 0-13.9-5.95-13.9-14.12z"/><path d="m158.32 60.01c0-7.67 5.28-14.07 13.79-14.07 8.62 0 13.85 6.39 13.85 14.07 0 7.73-5.23 14.12-13.85 14.12-8.51 0-13.79-6.39-13.79-14.12zm21.57 0c0-4.73-2.78-8.9-7.78-8.9-4.95 0-7.73 4.17-7.73 8.9 0 4.78 2.78 8.95 7.73 8.95 5 0 7.78-4.17 7.78-8.95z"/><path d="m209.92 73.46v-16.79c0-4.17-2.11-5.56-5.39-5.56-3 0-5.56 1.78-6.89 3.61v18.74h-5.84v-26.85h5.84v3.67c1.78-2.11 5.23-4.34 9.45-4.34 5.78 0 8.67 3.11 8.67 8.62v18.9z"/><path d="m225.05 67.24v-15.52h-4.45v-5.12h4.45v-7.34h5.84v7.34h5.45v5.12h-5.45v14.07c0 1.83.89 3.17 2.56 3.17 1.11 0 2.17-.44 2.61-.95l1.39 4.39c-1.06 1-2.78 1.72-5.5 1.72-4.51.01-6.9-2.43-6.9-6.88z"/><path d="m241.11 60.01c0-7.78 5.67-14.07 13.62-14.07 8.06 0 13.23 6.17 13.23 14.62v1.39h-20.74c.44 4.06 3.5 7.4 8.56 7.4 2.61 0 5.73-1.06 7.62-2.95l2.67 3.84c-2.67 2.56-6.62 3.89-10.9 3.89-8.06 0-14.06-5.61-14.06-14.12zm13.62-9.29c-5 0-7.28 3.84-7.56 7.12h15.12c-.11-3.17-2.28-7.12-7.56-7.12z"/><path d="m291.45 73.46-6.95-9.9-7.01 9.9h-6.51l9.84-13.79-9.29-13.07h6.56l6.39 9.12 6.34-9.12h6.56l-9.29 13.07 9.9 13.79z"/><path d="m304.86 67.24v-15.52h-4.45v-5.12h4.45v-7.34h5.84v7.34h5.45v5.12h-5.45v14.07c0 1.83.89 3.17 2.56 3.17 1.11 0 2.17-.44 2.61-.95l1.39 4.39c-1.06 1-2.78 1.72-5.5 1.72-4.51.01-6.9-2.43-6.9-6.88z"/><path d="m324.38 73.46v-21.74h-4.45v-5.12h4.45v-1.5c0-6.01 3.56-9.29 8.51-9.29 1.83 0 3.5.39 4.67 1.06l-1.28 4.34c-.56-.39-1.33-.61-2.34-.61-2.28 0-3.73 1.5-3.73 4.5v1.5h5.45v5.12h-5.45v21.74zm16.57 0v-37.08h5.84v37.09h-5.84z"/><path d="m353.24 60.01c0-7.67 5.28-14.07 13.79-14.07 8.62 0 13.85 6.39 13.85 14.07 0 7.73-5.23 14.12-13.85 14.12-8.51 0-13.79-6.39-13.79-14.12zm21.57 0c0-4.73-2.78-8.9-7.78-8.9-4.95 0-7.73 4.17-7.73 8.9 0 4.78 2.78 8.95 7.73 8.95 5 0 7.78-4.17 7.78-8.95z"/><path d="m410.74 73.46-6.23-19.68-6.23 19.68h-6.12l-8.34-26.86h6.06l5.67 19.52 6.4-19.52h5.12l6.39 19.52 5.67-19.52h6.06l-8.34 26.86z"/></g></svg>