<svg id="Warstwa_1" data-name="Warstwa 1" xmlns="http://www.w3.org/2000/svg" viewBox="0 0 255.12 85.04"><defs><style>.cls-1{fill:#060038;}.cls-2{fill:#36c6fd;}</style></defs><title>niebiesko ciemne</title><path class="cls-1" d="M117.9,34.91v10q0,5.45-6.74,5.51h-11.1q-6.63-.06-6.65-5.68V34.91q.06-6.63,6.69-6.65h11.08Q117.84,28.26,117.9,34.91Zm-7.31-2.23h-9.81c-1.93,0-2.91,1-2.94,2.83v8.26q0,2.24,3.84,2.26h8.74c2,0,3-.56,3-1.67V35.5A2.5,2.5,0,0,0,110.59,32.68Z"/><path class="cls-1" d="M191.36,28.1h4.47V50.43h-4.47Z"/><rect class="cls-1" x="204.22" y="17.54" width="6.25" height="32.87"/><polygon class="cls-1" points="215.1 17.56 215.06 23.81 226.17 23.81 226.17 50.43 232.43 50.43 232.43 23.82 243.32 23.82 243.32 17.56 215.1 17.56"/><path class="cls-1" d="M185.38,50.41l0-15.49q0-6.63-6.67-6.67H166a5,5,0,0,0-5,5V50.43h4.43V32.68H180.9v2.85s0,0,0,0V50.41Z"/><path class="cls-1" d="M149.5,28.29H128a5,5,0,0,0-5,5V50.43h4.44V32.7h9.85v2.78h0v7.06h0v7.84h4.59V32.7h9.89v9.85h0v7.88h4.48V34.94Q156.2,28.31,149.5,28.29Z"/><polygon class="cls-2" points="71.16 9.32 42.15 9.32 18.86 9.32 11.8 16.38 11.8 68.66 18.86 68.66 18.86 16.38 71.16 16.38 71.16 68.66 54.43 68.66 54.43 28.02 66.54 28.02 66.54 20.91 35.25 20.91 35.25 28.02 47.36 28.02 47.36 68.66 30.64 68.66 30.64 20.91 23.57 20.91 23.57 68.66 23.57 75.72 71.16 75.72 78.22 68.66 78.22 16.38 71.16 9.32"/><path class="cls-1" d="M93.7,65a.25.25,0,0,1-.26-.24V57.5a.25.25,0,0,1,.26-.24h.38a.62.62,0,0,1,.63.6v6.9a.24.24,0,0,1-.24.24Z"/><path class="cls-1" d="M102.45,57.51v7.25a.24.24,0,0,1-.25.24h-.6a.68.68,0,0,1-.58-.33L98.36,59.9v4.5a.61.61,0,0,1-.63.6h-.38a.25.25,0,0,1-.26-.24V57.5a.25.25,0,0,1,.26-.24h.6a.64.64,0,0,1,.57.33l2.66,4.77v-4.5a.62.62,0,0,1,.63-.6h.39A.26.26,0,0,1,102.45,57.51Z"/><path class="cls-1" d="M110.18,57.51v7.25a.24.24,0,0,1-.26.24h-.6a.66.66,0,0,1-.57-.33l-2.66-4.77v4.5a.61.61,0,0,1-.63.6h-.39a.24.24,0,0,1-.25-.24V57.51a.25.25,0,0,1,.26-.25h.59a.67.67,0,0,1,.58.33l2.66,4.78V57.86a.62.62,0,0,1,.63-.6h.38A.25.25,0,0,1,110.18,57.51Z"/><path class="cls-1" d="M114.46,65a1.85,1.85,0,0,1-1.91-1.78V59.05a1.86,1.86,0,0,1,1.91-1.79H116a1.85,1.85,0,0,1,1.91,1.79v4.17A1.85,1.85,0,0,1,116,65Zm-.64-6v4.17a.63.63,0,0,0,.64.59H116a.62.62,0,0,0,.64-.59V59.05a.62.62,0,0,0-.64-.6h-1.54A.63.63,0,0,0,113.82,59.05Z"/><path class="cls-1" d="M125.44,57.27H126a.25.25,0,0,1,.25.3l-2.23,7a.65.65,0,0,1-.62.42h-.45a.63.63,0,0,1-.61-.42l-2.23-7a.24.24,0,0,1,.25-.3h.5a.65.65,0,0,1,.62.42L123.13,63l1.71-5.33A.61.61,0,0,1,125.44,57.27Z"/><path class="cls-1" d="M133.73,59.05v5.71a.24.24,0,0,1-.26.24h-.38a.61.61,0,0,1-.63-.6V62.26h-2.82V64.4a.61.61,0,0,1-.63.6h-.39a.24.24,0,0,1-.25-.24V59.05a1.84,1.84,0,0,1,1.91-1.78h1.53A1.85,1.85,0,0,1,133.73,59.05Zm-1.27,2v-2a.64.64,0,0,0-.65-.6h-1.53a.63.63,0,0,0-.64.6v2Z"/><path class="cls-1" d="M141.8,57.86a.61.61,0,0,1-.64.59h-1.85v6.31a.24.24,0,0,1-.26.24h-.77a.25.25,0,0,1-.25-.24V58.45h-1.85a.61.61,0,0,1-.64-.59v-.35a.24.24,0,0,1,.26-.24h5.74a.24.24,0,0,1,.26.24Z"/><path class="cls-1" d="M143.87,65a.24.24,0,0,1-.26-.24V57.51a.24.24,0,0,1,.26-.24h.38a.61.61,0,0,1,.63.59v6.9a.24.24,0,0,1-.25.24Z"/><path class="cls-1" d="M152.41,57.27h.52a.25.25,0,0,1,.25.3l-2.24,7a.65.65,0,0,1-.62.42h-.45a.63.63,0,0,1-.61-.42l-2.23-7a.24.24,0,0,1,.25-.3h.51a.65.65,0,0,1,.62.43L150.1,63l1.7-5.32A.64.64,0,0,1,152.41,57.27Z"/><path class="cls-1" d="M160.05,58.45h-3.44v2h2.68a.62.62,0,0,1,.64.6v.35a.26.26,0,0,1-.26.25H156.6v2.14h3.45a.61.61,0,0,1,.64.58v.36a.24.24,0,0,1-.25.24H156a.61.61,0,0,1-.64-.6V57.87a.61.61,0,0,1,.64-.6h4.47a.25.25,0,0,1,.26.24v.36A.62.62,0,0,1,160.05,58.45Z"/><path class="cls-1" d="M173.16,57.87a.61.61,0,0,1-.64.58h-1.85v6.31a.24.24,0,0,1-.26.24h-.76a.25.25,0,0,1-.26-.24V58.45h-1.85a.61.61,0,0,1-.64-.58v-.36a.24.24,0,0,1,.26-.24h5.74a.24.24,0,0,1,.26.24Z"/><path class="cls-1" d="M179.69,58.45h-3.45v2h2.69a.62.62,0,0,1,.64.6v.36a.26.26,0,0,1-.26.24h-3.07v2.14h3.45a.61.61,0,0,1,.64.59v.35a.24.24,0,0,1-.26.24h-4.46a.61.61,0,0,1-.64-.59V57.87a.61.61,0,0,1,.64-.6h4.46a.24.24,0,0,1,.26.24v.36A.61.61,0,0,1,179.69,58.45Z"/><path class="cls-1" d="M184.39,65a1.86,1.86,0,0,1-1.91-1.79V59.05a1.85,1.85,0,0,1,1.91-1.78h1.54a1.85,1.85,0,0,1,1.91,1.78v.36a.24.24,0,0,1-.26.24h-.76a.24.24,0,0,1-.25-.24v-.36a.63.63,0,0,0-.64-.59h-1.54a.62.62,0,0,0-.64.59v4.17a.62.62,0,0,0,.64.6h1.54a.63.63,0,0,0,.64-.6v-.36a.61.61,0,0,1,.63-.59h.38a.24.24,0,0,1,.26.24v.71A1.86,1.86,0,0,1,185.93,65Z"/><path class="cls-1" d="M194.93,57.27h.38a.24.24,0,0,1,.26.24v7.25a.25.25,0,0,1-.26.25h-.38a.62.62,0,0,1-.63-.6V61.68h-2.82v2.73a.62.62,0,0,1-.63.6h-.38a.25.25,0,0,1-.26-.25V57.51a.24.24,0,0,1,.26-.24h.38a.62.62,0,0,1,.64.6v2.61h2.81V57.87A.61.61,0,0,1,194.93,57.27Z"/><path class="cls-1" d="M203.31,57.51v7.26a.25.25,0,0,1-.26.24h-.6a.66.66,0,0,1-.57-.33l-2.66-4.78v4.51a.62.62,0,0,1-.63.6h-.39a.26.26,0,0,1-.26-.25V57.51a.24.24,0,0,1,.25-.24h.6a.68.68,0,0,1,.58.32L202,62.37v-4.5a.61.61,0,0,1,.63-.6h.38A.25.25,0,0,1,203.31,57.51Z"/><path class="cls-1" d="M207.59,65a1.85,1.85,0,0,1-1.91-1.79V59.05a1.85,1.85,0,0,1,1.91-1.78h1.54A1.85,1.85,0,0,1,211,59.05v4.17A1.86,1.86,0,0,1,209.13,65Zm-.64-6v4.17a.63.63,0,0,0,.64.6h1.54a.62.62,0,0,0,.64-.6V59.05a.62.62,0,0,0-.64-.59h-1.54A.63.63,0,0,0,207,59.05Z"/><path class="cls-1" d="M214.05,65a.62.62,0,0,1-.64-.6v-6.9a.25.25,0,0,1,.26-.24h.39a.61.61,0,0,1,.63.6v6h2.95a.62.62,0,0,1,.64.59v.36A.25.25,0,0,1,218,65Z"/><path class="cls-1" d="M222,65a1.86,1.86,0,0,1-1.92-1.79V59.06A1.85,1.85,0,0,1,222,57.27h1.53a1.86,1.86,0,0,1,1.92,1.79v4.16A1.86,1.86,0,0,1,223.52,65Zm-.64-6v4.16a.62.62,0,0,0,.64.6h1.53a.62.62,0,0,0,.64-.6V59.06a.63.63,0,0,0-.65-.6H222A.62.62,0,0,0,221.35,59.06Z"/><path class="cls-1" d="M229.72,65a1.85,1.85,0,0,1-1.91-1.79V59.06a1.86,1.86,0,0,1,1.91-1.79h1.54a1.85,1.85,0,0,1,1.91,1.79v.11a.24.24,0,0,1-.26.24h-.76a.24.24,0,0,1-.25-.24v-.11a.62.62,0,0,0-.64-.6h-1.54a.63.63,0,0,0-.64.6v4.16a.63.63,0,0,0,.64.6h1.54a.62.62,0,0,0,.64-.6V61.68H231a.62.62,0,0,1-.63-.6v-.36a.24.24,0,0,1,.24-.24h1.92a.62.62,0,0,1,.64.6v2.14A1.86,1.86,0,0,1,231.26,65Z"/><path class="cls-1" d="M241.51,57.61l-2.61,4.62v2.55a.24.24,0,0,1-.25.23h-.78a.23.23,0,0,1-.24-.23V62.23L235,57.61a.23.23,0,0,1,.22-.34h.68a.55.55,0,0,1,.5.29l1.85,3.25,1.85-3.25a.54.54,0,0,1,.49-.29h.69A.24.24,0,0,1,241.51,57.61Z"/></svg>