<?xml version="1.0" encoding="utf-8"?>
<!-- Generator: Adobe Illustrator 23.0.0, SVG Export Plug-In . SVG Version: 6.00 Build 0)  -->
<svg version="1.1" id="Ebene_1" xmlns="http://www.w3.org/2000/svg" xmlns:xlink="http://www.w3.org/1999/xlink" x="0px" y="0px"
	 viewBox="0 0 425.2 113.15" style="enable-background:new 0 0 425.2 113.15;" xml:space="preserve">
<style type="text/css">
	.st0{fill:url(#SVGID_1_);}
	.st1{fill:url(#SVGID_2_);}
	.st2{fill:#002A3A;}
</style>
<g>
	<linearGradient id="SVGID_1_" gradientUnits="userSpaceOnUse" x1="0" y1="50.9157" x2="101.8313" y2="50.9157">
		<stop  offset="0" style="stop-color:#FFFFFF;stop-opacity:0.6"/>
		<stop  offset="0.1297" style="stop-color:#D6F7F6;stop-opacity:0.6519"/>
		<stop  offset="0.3675" style="stop-color:#90E9E6;stop-opacity:0.747"/>
		<stop  offset="0.5821" style="stop-color:#59DEDA;stop-opacity:0.8328"/>
		<stop  offset="0.7657" style="stop-color:#31D6D1;stop-opacity:0.9063"/>
		<stop  offset="0.911" style="stop-color:#19D1CB;stop-opacity:0.9644"/>
		<stop  offset="1" style="stop-color:#10CFC9"/>
	</linearGradient>
	<path class="st0" d="M50.92,0C22.8,0,0,22.8,0,50.92s22.8,50.92,50.92,50.92s50.92-22.8,50.92-50.92S79.04,0,50.92,0z M50.92,83.45
		c-17.97,0-32.53-14.56-32.53-32.53c0-17.97,14.56-32.53,32.53-32.53c17.97,0,32.53,14.56,32.53,32.53
		C83.45,68.88,68.88,83.45,50.92,83.45z"/>
	<linearGradient id="SVGID_2_" gradientUnits="userSpaceOnUse" x1="111.2692" y1="62.2302" x2="9.4379" y2="62.2302">
		<stop  offset="0" style="stop-color:#FFFFFF"/>
		<stop  offset="0.0849" style="stop-color:#F6F7F8"/>
		<stop  offset="0.2235" style="stop-color:#DEE3E5"/>
		<stop  offset="0.3985" style="stop-color:#B6C2C6"/>
		<stop  offset="0.6031" style="stop-color:#7F949C"/>
		<stop  offset="0.8298" style="stop-color:#395A66"/>
		<stop  offset="1" style="stop-color:#002A3A"/>
	</linearGradient>
	<path class="st1" d="M60.82,11.31c-28.12,0-50.92,22.8-50.92,50.92s22.8,50.92,50.92,50.92s50.92-22.8,50.92-50.92
		S88.94,11.31,60.82,11.31z M60.82,94.76c-17.97,0-32.53-14.56-32.53-32.53c0-17.97,14.56-32.53,32.53-32.53
		c17.97,0,32.53,14.56,32.53,32.53C93.35,80.2,78.79,94.76,60.82,94.76z"/>
</g>
<g>
	<path class="st2" d="M130.12,60.01c0-8.12,5.73-14.07,13.9-14.07c5.23,0,8.4,2.22,10.29,4.78l-3.84,3.56
		c-1.5-2.11-3.56-3.17-6.17-3.17c-4.89,0-8.12,3.67-8.12,8.9s3.22,8.95,8.12,8.95c2.61,0,4.67-1.11,6.17-3.17l3.84,3.56
		c-1.89,2.56-5.06,4.78-10.29,4.78C135.85,74.13,130.12,68.18,130.12,60.01z"/>
	<path class="st2" d="M158.32,60.01c0-7.67,5.28-14.07,13.79-14.07c8.62,0,13.85,6.39,13.85,14.07c0,7.73-5.23,14.12-13.85,14.12
		C163.6,74.13,158.32,67.74,158.32,60.01z M179.89,60.01c0-4.73-2.78-8.9-7.78-8.9c-4.95,0-7.73,4.17-7.73,8.9
		c0,4.78,2.78,8.95,7.73,8.95C177.11,68.96,179.89,64.79,179.89,60.01z"/>
	<path class="st2" d="M209.92,73.46V56.67c0-4.17-2.11-5.56-5.39-5.56c-3,0-5.56,1.78-6.89,3.61v18.74h-5.84V46.61h5.84v3.67
		c1.78-2.11,5.23-4.34,9.45-4.34c5.78,0,8.67,3.11,8.67,8.62v18.9H209.92z"/>
	<path class="st2" d="M225.05,67.24V51.72h-4.45v-5.12h4.45v-7.34h5.84v7.34h5.45v5.12h-5.45v14.07c0,1.83,0.89,3.17,2.56,3.17
		c1.11,0,2.17-0.44,2.61-0.95l1.39,4.39c-1.06,1-2.78,1.72-5.5,1.72C227.44,74.13,225.05,71.69,225.05,67.24z"/>
	<path class="st2" d="M241.11,60.01c0-7.78,5.67-14.07,13.62-14.07c8.06,0,13.23,6.17,13.23,14.62v1.39h-20.74
		c0.44,4.06,3.5,7.4,8.56,7.4c2.61,0,5.73-1.06,7.62-2.95l2.67,3.84c-2.67,2.56-6.62,3.89-10.9,3.89
		C247.11,74.13,241.11,68.52,241.11,60.01z M254.73,50.72c-5,0-7.28,3.84-7.56,7.12h15.12C262.18,54.67,260.01,50.72,254.73,50.72z"
		/>
	<path class="st2" d="M291.45,73.46l-6.95-9.9l-7.01,9.9h-6.51l9.84-13.79l-9.29-13.07h6.56l6.39,9.12l6.34-9.12h6.56l-9.29,13.07
		l9.9,13.79H291.45z"/>
	<path class="st2" d="M304.86,67.24V51.72h-4.45v-5.12h4.45v-7.34h5.84v7.34h5.45v5.12h-5.45v14.07c0,1.83,0.89,3.17,2.56,3.17
		c1.11,0,2.17-0.44,2.61-0.95l1.39,4.39c-1.06,1-2.78,1.72-5.5,1.72C307.25,74.13,304.86,71.69,304.86,67.24z"/>
	<path class="st2" d="M324.38,73.46V51.72h-4.45v-5.12h4.45v-1.5c0-6.01,3.56-9.29,8.51-9.29c1.83,0,3.5,0.39,4.67,1.06l-1.28,4.34
		c-0.56-0.39-1.33-0.61-2.34-0.61c-2.28,0-3.73,1.5-3.73,4.5v1.5h5.45v5.12h-5.45v21.74H324.38z M340.95,73.46V36.38h5.84v37.09
		H340.95z"/>
	<path class="st2" d="M353.24,60.01c0-7.67,5.28-14.07,13.79-14.07c8.62,0,13.85,6.39,13.85,14.07c0,7.73-5.23,14.12-13.85,14.12
		C358.52,74.13,353.24,67.74,353.24,60.01z M374.81,60.01c0-4.73-2.78-8.9-7.78-8.9c-4.95,0-7.73,4.17-7.73,8.9
		c0,4.78,2.78,8.95,7.73,8.95C372.03,68.96,374.81,64.79,374.81,60.01z"/>
	<path class="st2" d="M410.74,73.46l-6.23-19.68l-6.23,19.68h-6.12l-8.34-26.86h6.06l5.67,19.52l6.4-19.52h5.12l6.39,19.52
		l5.67-19.52h6.06l-8.34,26.86H410.74z"/>
</g>
</svg>
